<svg xmlns="http://www.w3.org/2000/svg" xmlns:xlink="http://www.w3.org/1999/xlink" width="213" height="243" viewBox="0 0 213 243"><defs><style>.a{fill:#005488;}.b,.c{fill:#fff;}.c{font-size:15px;font-family:Verdana-Bold, Verdana;font-weight:700;}.d{fill:none;stroke:#d3d3d3;stroke-linecap:round;stroke-width:2px;}.e{filter:url(#c);}.f{filter:url(#a);}</style><filter id="a" x="0" y="0" width="213" height="243" filterUnits="userSpaceOnUse"><feOffset dx="1" dy="1" input="SourceAlpha"/><feGaussianBlur stdDeviation="7.5" result="b"/><feFlood flood-color="#004c84" flood-opacity="0.306"/><feComposite operator="in" in2="b"/><feComposite in="SourceGraphic"/></filter><filter id="c" x="0" y="0" width="213" height="243" filterUnits="userSpaceOnUse"><feOffset dx="1" dy="1" input="SourceAlpha"/><feGaussianBlur stdDeviation="7.5" result="d"/><feFlood flood-color="#023171" flood-opacity="0.835" result="e"/><feComposite operator="out" in="SourceGraphic" in2="d"/><feComposite operator="in" in="e"/><feComposite operator="in" in2="SourceGraphic"/></filter></defs><g transform="translate(22.299 21.5)"><g data-type="innerShadowGroup"><g class="f" transform="matrix(1, 0, 0, 1, -22.3, -21.5)"><rect class="a" width="168" height="198" rx="20" transform="translate(21.5 21.5)"/></g><g class="e" transform="matrix(1, 0, 0, 1, -22.3, -21.5)"><rect class="b" width="168" height="198" rx="20" transform="translate(21.5 21.5)"/></g></g><g transform="translate(48.469 32.315)"><g transform="translate(0 0)"><path class="b" d="M56.008,90.362c16.973,0,35.008-4.028,35.008-11.49V29.886h-.048C90.025,22.81,72.509,19,56.008,19S21.99,22.81,21.048,29.886H21V78.871C21,86.334,39.035,90.362,56.008,90.362Zm0-68.943C75.214,21.419,88.6,26.2,88.6,30.49s-13.387,9.071-32.593,9.071S23.414,34.784,23.414,30.49,36.8,21.419,56.008,21.419ZM23.414,34.905c5.468,4.62,19.351,7.076,32.593,7.076S83.132,39.526,88.6,34.905V54.681c0,4.294-13.387,9.071-32.593,9.071s-32.593-4.778-32.593-9.071Zm0,24.19c5.468,4.62,19.351,7.076,32.593,7.076S83.132,63.716,88.6,59.1V78.871c0,4.294-13.387,9.071-32.593,9.071s-32.593-4.778-32.593-9.071Z" transform="translate(-21 -19)"/><path class="b" d="M49.849,49.7A2.849,2.849,0,1,0,47,46.849,2.857,2.857,0,0,0,49.849,49.7Zm0-3.8a.95.95,0,1,1-.95.95A.952.952,0,0,1,49.849,45.9Z" transform="translate(-14.841 -13.026)"/><path class="b" d="M49.849,69.7A2.849,2.849,0,1,0,47,66.849,2.857,2.857,0,0,0,49.849,69.7Zm0-3.8a.95.95,0,1,1-.95.95A.952.952,0,0,1,49.849,65.9Z" transform="translate(-14.841 -5.932)"/><path class="b" d="M40.849,48.7A2.849,2.849,0,1,0,38,45.849,2.857,2.857,0,0,0,40.849,48.7Zm0-3.8a.95.95,0,1,1-.95.95A.952.952,0,0,1,40.849,44.9Z" transform="translate(-16.973 -13.265)"/><path class="b" d="M40.849,68.7A2.849,2.849,0,1,0,38,65.849,2.857,2.857,0,0,0,40.849,68.7Zm0-3.8a.95.95,0,1,1-.95.95A.952.952,0,0,1,40.849,64.9Z" transform="translate(-16.973 -8.486)"/><path class="b" d="M58.849,48.7A2.849,2.849,0,1,0,56,45.849,2.857,2.857,0,0,0,58.849,48.7Zm0-3.8a.95.95,0,1,1-.95.95A.952.952,0,0,1,58.849,44.9Z" transform="translate(-12.709 -13.265)"/><path class="b" d="M58.849,68.7A2.849,2.849,0,1,0,56,65.849,2.857,2.857,0,0,0,58.849,68.7Zm0-3.8a.95.95,0,1,1-.95.95A.952.952,0,0,1,58.849,64.9Z" transform="translate(-12.709 -8.486)"/></g></g><text class="c" transform="translate(59.201 173)"><tspan x="0" y="0">DATA</tspan></text><line class="d" x2="102" transform="translate(32.201 136)"/></g></svg>